<svg width="22" height="22" viewBox="0 0 22 22" fill="none" xmlns="http://www.w3.org/2000/svg">
<path d="M4.325 15.725C5.25833 15.025 6.275 14.4873 7.375 14.112C8.475 13.7373 9.61667 13.55 10.8 13.55C11.9833 13.55 13.125 13.7373 14.225 14.112C15.325 14.4873 16.3417 15.025 17.275 15.725C17.8583 14.9583 18.2833 14.1707 18.55 13.362C18.8167 12.554 18.95 11.7 18.95 10.8C18.95 8.56667 18.15 6.65 16.55 5.05C14.95 3.45 13.0333 2.65 10.8 2.65C8.56667 2.65 6.65 3.45 5.05 5.05C3.45 6.65 2.65 8.56667 2.65 10.8C2.65 11.7 2.78333 12.554 3.05 13.362C3.31667 14.1707 3.74167 14.9583 4.325 15.725ZM10.8 12.4C9.65 12.4 8.67933 12.004 7.888 11.212C7.096 10.4207 6.7 9.45 6.7 8.3C6.7 7.15 7.096 6.179 7.888 5.387C8.67933 4.59567 9.65 4.2 10.8 4.2C11.95 4.2 12.921 4.59567 13.713 5.387C14.5043 6.179 14.9 7.15 14.9 8.3C14.9 9.45 14.5043 10.4207 13.713 11.212C12.921 12.004 11.95 12.4 10.8 12.4ZM10.8 21.6C9.33333 21.6 7.94167 21.3127 6.625 20.738C5.30833 20.1627 4.16267 19.3873 3.188 18.412C2.21267 17.4373 1.43733 16.2917 0.862 14.975C0.287333 13.6583 0 12.2583 0 10.775C0 9.30833 0.287333 7.92067 0.862 6.612C1.43733 5.304 2.21267 4.16233 3.188 3.187C4.16267 2.21233 5.30833 1.43733 6.625 0.862C7.94167 0.287333 9.34167 0 10.825 0C12.2917 0 13.6793 0.287333 14.988 0.862C16.296 1.43733 17.4377 2.21233 18.413 3.187C19.3877 4.16233 20.1627 5.304 20.738 6.612C21.3127 7.92067 21.6 9.31667 21.6 10.8C21.6 12.2667 21.3127 13.6583 20.738 14.975C20.1627 16.2917 19.3877 17.4373 18.413 18.412C17.4377 19.3873 16.296 20.1627 14.988 20.738C13.6793 21.3127 12.2833 21.6 10.8 21.6ZM10.8 18.95C11.6 18.95 12.3833 18.8333 13.15 18.6C13.9167 18.3667 14.625 18.025 15.275 17.575C14.625 17.125 13.9167 16.7833 13.15 16.55C12.3833 16.3167 11.6 16.2 10.8 16.2C10 16.2 9.21667 16.3167 8.45 16.55C7.68333 16.7833 6.975 17.125 6.325 17.575C6.975 18.025 7.68333 18.3667 8.45 18.6C9.21667 18.8333 10 18.95 10.8 18.95ZM10.8 9.75C11.2 9.75 11.5417 9.60833 11.825 9.325C12.1083 9.04167 12.25 8.7 12.25 8.3C12.25 7.9 12.1083 7.55833 11.825 7.275C11.5417 6.99167 11.2 6.85 10.8 6.85C10.4 6.85 10.0583 6.99167 9.775 7.275C9.49167 7.55833 9.35 7.9 9.35 8.3C9.35 8.7 9.49167 9.04167 9.775 9.325C10.0583 9.60833 10.4 9.75 10.8 9.75Z" fill="#535AF1"/>
</svg>
