<svg width="22" height="22" viewBox="0 0 22 22" fill="none" xmlns="http://www.w3.org/2000/svg">
<path d="M10.825 16.2C11.1917 16.2 11.5043 16.0707 11.763 15.812C12.021 15.554 12.15 15.2417 12.15 14.875V12.15H14.9C15.2667 12.15 15.575 12.025 15.825 11.775C16.075 11.525 16.2 11.2083 16.2 10.825C16.2 10.4583 16.071 10.1457 15.813 9.887C15.5543 9.629 15.2417 9.5 14.875 9.5H12.15V6.7C12.15 6.33333 12.025 6.025 11.775 5.775C11.525 5.525 11.2083 5.4 10.825 5.4C10.4583 5.4 10.146 5.529 9.888 5.787C9.62933 6.04567 9.5 6.35833 9.5 6.725V9.5H6.7C6.33333 9.5 6.025 9.625 5.775 9.875C5.525 10.125 5.4 10.4417 5.4 10.825C5.4 11.1917 5.52933 11.504 5.788 11.762C6.046 12.0207 6.35833 12.15 6.725 12.15H9.5V14.9C9.5 15.2667 9.625 15.575 9.875 15.825C10.125 16.075 10.4417 16.2 10.825 16.2ZM10.8 21.6C9.3 21.6 7.89567 21.3167 6.587 20.75C5.279 20.1833 4.13767 19.4127 3.163 18.438C2.18767 17.4627 1.41667 16.3207 0.85 15.012C0.283333 13.704 0 12.3 0 10.8C0 9.3 0.283333 7.89167 0.85 6.575C1.41667 5.25833 2.18767 4.11267 3.163 3.138C4.13767 2.16267 5.279 1.39567 6.587 0.837C7.89567 0.279 9.3 0 10.8 0C12.3 0 13.7083 0.279 15.025 0.837C16.3417 1.39567 17.4877 2.16267 18.463 3.138C19.4377 4.11267 20.204 5.25833 20.762 6.575C21.3207 7.89167 21.6 9.3 21.6 10.8C21.6 12.3 21.3207 13.704 20.762 15.012C20.204 16.3207 19.4377 17.4627 18.463 18.438C17.4877 19.4127 16.3417 20.1833 15.025 20.75C13.7083 21.3167 12.3 21.6 10.8 21.6ZM10.8 18.95C13.0667 18.95 14.9917 18.1583 16.575 16.575C18.1583 14.9917 18.95 13.0667 18.95 10.8C18.95 8.53333 18.1583 6.60833 16.575 5.025C14.9917 3.44167 13.0667 2.65 10.8 2.65C8.53333 2.65 6.60833 3.44167 5.025 5.025C3.44167 6.60833 2.65 8.53333 2.65 10.8C2.65 13.0667 3.44167 14.9917 5.025 16.575C6.60833 18.1583 8.53333 18.95 10.8 18.95Z" fill="#535AF1"/>
</svg>
